[Header]
FileType HTR
DataType HTRS
FileVersion 1
NumSegments 64
NumFrames 3
DataFrameRate 30
EulerRotationOrder ZYX
CalibrationUnits mm
RotationUnits Degrees
GlobalAxisofGravity Y
BoneLengthAxis Y
ScaleFactor 1.0
[SegmentNames&Hierarchy]
Hips	GLOBAL
Spine	Hips
Spine1	Spine
Spine2	Spine1
Neck	Spine2
Head	Neck
LeftEye	Head
RightEye	Head
LeftShoulder	Spine2
LeftArm	LeftShoulder
LeftForeArm	LeftArm
LeftHand	LeftForeArm
LeftHandThumb1	LeftHand
LeftHandThumb2	LeftHandThumb1
LeftHandThumb3	LeftHandThumb2
LeftHandThumb4	LeftHandThumb3
LeftHandIndex1	LeftHand
LeftHandIndex2	LeftHandIndex1
LeftHandIndex3	LeftHandIndex2
LeftHandIndex4	LeftHandIndex3
LeftHandMiddle1	LeftHand
LeftHandMiddle2	LeftHandMiddle1
LeftHandMiddle3	LeftHandMiddle2
LeftHandMiddle4	LeftHandMiddle3
LeftHandRing1	LeftHand
LeftHandRing2	LeftHandRing1
LeftHandRing3	LeftHandRing2
LeftHandRing4	LeftHandRing3
LeftHandPinky1	LeftHand
LeftHandPinky2	LeftHandPinky1
LeftHandPinky3	LeftHandPinky2
LeftHandPinky4	LeftHandPinky3
RightShoulder	Spine2
RightArm	RightShoulder
RightForeArm	RightArm
RightHand	RightForeArm
RightHandPinky1	RightHand
RightHandPinky2	RightHandPinky1
RightHandPinky3	RightHandPinky2
RightHandPinky4	RightHandPinky3
RightHandRing1	RightHand
RightHandRing2	RightHandRing1
RightHandRing3	RightHandRing2
RightHandRing4	RightHandRing3
RightHandMiddle1	RightHand
RightHandMiddle2	RightHandMiddle1
RightHandMiddle3	RightHandMiddle2
RightHandMiddle4	RightHandMiddle3
RightHandIndex1	RightHand
RightHandIndex2	RightHandIndex1
RightHandIndex3	RightHandIndex2
RightHandIndex4	RightHandIndex3
RightHandThumb1	RightHand
RightHandThumb2	RightHandThumb1
RightHandThumb3	RightHandThumb2
RightHandThumb4	RightHandThumb3
LeftUpLeg	Hips
LeftLeg	LeftUpLeg
LeftFoot	LeftLeg
LeftToeBase	LeftFoot
RightUpLeg	Hips
RightLeg	RightUpLeg
RightFoot	RightLeg
RightToeBase	RightFoot
[BasePosition]
Hips	0	0	0	0	0	0	1
Spine	0	0	0	0	0	0	1
Spine1	0	0	0	0	0	0	1
Spine2	0	0	0	0	0	0	1
Neck	0	0	0	0	0	0	1
Head	0	0	0	0	0	0	1
LeftEye	0	0	0	0	0	0	1
RightEye	0	0	0	0	0	0	1
LeftShoulder	0	0	0	0	0	0	1
LeftArm	0	0	0	0	0	0	1
LeftForeArm	0	0	0	0	0	0	1
LeftHand	0	0	0	0	0	0	1
LeftHandThumb1	0	0	0	0	0	0	1
LeftHandThumb2	0	0	0	0	0	0	1
LeftHandThumb3	0	0	0	0	0	0	1
LeftHandThumb4	0	0	0	0	0	0	1
LeftHandIndex1	0	0	0	0	0	0	1
LeftHandIndex2	0	0	0	0	0	0	1
LeftHandIndex3	0	0	0	0	0	0	1
LeftHandIndex4	0	0	0	0	0	0	1
LeftHandMiddle1	0	0	0	0	0	0	1
LeftHandMiddle2	0	0	0	0	0	0	1
LeftHandMiddle3	0	0	0	0	0	0	1
LeftHandMiddle4	0	0	0	0	0	0	1
LeftHandRing1	0	0	0	0	0	0	1
LeftHandRing2	0	0	0	0	0	0	1
LeftHandRing3	0	0	0	0	0	0	1
LeftHandRing4	0	0	0	0	0	0	1
LeftHandPinky1	0	0	0	0	0	0	1
LeftHandPinky2	0	0	0	0	0	0	1
LeftHandPinky3	0	0	0	0	0	0	1
LeftHandPinky4	0	0	0	0	0	0	1
RightShoulder	0	0	0	0	0	0	1
RightArm	0	0	0	0	0	0	1
RightForeArm	0	0	0	0	0	0	1
RightHand	0	0	0	0	0	0	1
RightHandPinky1	0	0	0	0	0	0	1
RightHandPinky2	0	0	0	0	0	0	1
RightHandPinky3	0	0	0	0	0	0	1
RightHandPinky4	0	0	0	0	0	0	1
RightHandRing1	0	0	0	0	0	0	1
RightHandRing2	0	0	0	0	0	0	1
RightHandRing3	0	0	0	0	0	0	1
RightHandRing4	0	0	0	0	0	0	1
RightHandMiddle1	0	0	0	0	0	0	1
RightHandMiddle2	0	0	0	0	0	0	1
RightHandMiddle3	0	0	0	0	0	0	1
RightHandMiddle4	0	0	0	0	0	0	1
RightHandIndex1	0	0	0	0	0	0	1
RightHandIndex2	0	0	0	0	0	0	1
RightHandIndex3	0	0	0	0	0	0	1
RightHandIndex4	0	0	0	0	0	0	1
RightHandThumb1	0	0	0	0	0	0	1
RightHandThumb2	0	0	0	0	0	0	1
RightHandThumb3	0	0	0	0	0	0	1
RightHandThumb4	0	0	0	0	0	0	1
LeftUpLeg	0	0	0	0	0	0	1
LeftLeg	0	0	0	0	0	0	1
LeftFoot	0	0	0	0	0	0	1
LeftToeBase	0	0	0	0	0	0	1
RightUpLeg	0	0	0	0	0	0	1
RightLeg	0	0	0	0	0	0	1
RightFoot	0	0	0	0	0	0	1
RightToeBase	0	0	0	0	0	0	1
[Hips]
6	284.1967773	982.5869141	19.82051468	-1.097808003	61.76028061	-10.17251396	1.0
7	340.2631836	966.4359131	21.01194382	-2.303682804	60.54260254	-11.29077721	1.0
8	394.7209473	948.569397	21.85394478	-0.8124885559	60.2371254	-9.245329857	1.0
[Spine]
6	0	101.8159943	1.315000057	5.346153736	-2.254966736	3.142943144	1.0
7	0	101.8159943	1.315000057	5.499123096	-1.444496036	3.159365177	1.0
8	0	101.8159943	1.315000057	5.798757553	-1.116726995	1.416555285	1.0
[Spine1]
6	0	100.8349991	-10.00800037	3.664073706	-3.583755255	1.060405731	1.0
7	0	100.8349991	-10.00800037	3.749870539	-3.235538244	1.18448925	1.0
8	0	100.8349991	-10.00800037	4.004798889	-3.079117298	0.7648162842	1.0
[Spine2]
6	0	91	-13.73399925	3.686402082	-3.55561924	1.055093765	1.0
7	0	91	-13.73399925	3.768589735	-3.209300995	1.181084275	1.0
8	0	91	-13.73399925	4.006980419	-3.075974226	0.7567393184	1.0
[Neck]
6	0	166.7169952	-25.16200066	3.883189917	-6.173043251	-1.523726702	1.0
7	0	166.7169952	-25.16200066	3.791778803	-6.179611206	-1.522521734	1.0
8	0	166.7169952	-25.16200066	3.818768501	-6.205127239	-1.369090796	1.0
[Head]
6	0	96.17900085	16.84999847	-14.66623974	-34.85023117	13.81233311	1.0
7	0	96.17900085	16.84999847	-15.71452904	-34.68146515	14.85692215	1.0
8	0	96.17900085	16.84999847	-16.22900963	-34.67670822	15.88101959	1.0
[LeftEye]
6	30.6760006	64.09500122	92.83599854	0	0	0	1.0
7	30.6760006	64.09500122	92.83599854	0	0	0	1.0
8	30.6760006	64.09500122	92.83599854	0	0	0	1.0
[RightEye]
6	-30.6760006	64.09500122	92.83499908	0	0	0	1.0
7	-30.6760006	64.09500122	92.83499908	0	0	0	1.0
8	-30.6760006	64.09500122	92.83499908	0	0	0	1.0
[LeftShoulder]
6	45.70400238	109.4599991	-26.28000069	2.35243392	-4.896717548	-9.932789803	1.0
7	45.70400238	109.4599991	-26.28000069	2.383593559	-4.226747036	-9.789909363	1.0
8	45.70400238	109.4599991	-26.28000069	2.377990961	-3.633903027	-9.671185493	1.0
[LeftArm]
6	105.923996	-5.24600029	-22.32099915	26.64394379	-4.782321453	-56.0124588	1.0
7	105.923996	-5.24600029	-22.32099915	25.20662308	-3.110031605	-57.95228958	1.0
8	105.923996	-5.24600029	-22.32099915	23.59082985	-2.445975065	-60.31518173	1.0
[LeftForeArm]
6	278.414978	-0.0009999999311	0	1.071421593e-05	-23.5815773	-0.0002232771367	1.0
7	278.414978	-0.0009999999311	0	-2.382784487e-06	-21.26021576	-0.0002155850816	1.0
8	278.414978	-0.0009999999311	0	-3.636601605e-06	-17.45306587	-0.000200294322	1.0
[LeftHand]
6	283.2879944	0	0	-4.345822811	-3.317085505	3.306497335	1.0
7	283.2879944	0	0	-3.188389778	-3.368749619	2.926577568	1.0
8	283.2879944	0	0	-2.2474792	-2.718942404	2.734159708	1.0
[LeftHandThumb1]
6	24.6609993	-15.75	26.8239994	0.9464570284	1.151123047	0.2541034818	1.0
7	24.6609993	-15.75	26.8239994	0.9464570284	1.151123047	0.2541034818	1.0
8	24.6609993	-15.75	26.8239994	0.9464570284	1.151123047	0.2541034818	1.0
[LeftHandThumb2]
6	32.29800034	-18.64699936	18.64699936	15.91164112	0.3101863265	17.10770798	1.0
7	32.29800034	-18.64699936	18.64699936	16.42055702	0.536272943	16.7377243	1.0
8	32.29800034	-18.64699936	18.64699936	16.62568283	1.342661619	16.72172546	1.0
[LeftHandThumb3]
6	26.52600098	-15.31499958	15.31499958	-3.022382975	-12.99178505	22.14872169	1.0
7	26.52600098	-15.31499958	15.31499958	-3.616062164	-14.44126034	22.55965805	1.0
8	26.52600098	-15.31499958	15.31499958	-4.271724224	-16.01164246	23.17077827	1.0
[LeftHandThumb4]
6	19.54599953	-11.28499985	11.28499985	0	0	0	1.0
7	19.54599953	-11.28499985	11.28499985	0	0	0	1.0
8	19.54599953	-11.28499985	11.28499985	0	0	0	1.0
[LeftHandIndex1]
6	91.09299469	-5.170999527	22.60099792	-1.52926755	-0.7005330324	-26.26098824	1.0
7	91.09299469	-5.170999527	22.60099792	-1.525827765	0.294190079	-27.63197517	1.0
8	91.09299469	-5.170999527	22.60099792	-1.495170832	1.245467067	-28.72299957	1.0
[LeftHandIndex2]
6	36.76399994	0	0	-0.1287683547	1.220064044	-12.04939079	1.0
7	36.76399994	0	0	-0.1291072071	1.221637845	-12.06518936	1.0
8	36.76399994	0	0	-0.1294095963	1.22304368	-12.07925224	1.0
[LeftHandIndex3]
6	28.83100128	0	0	-0.1339748949	1.24418366	-12.29134178	1.0
7	28.83100128	0	0	-0.134315595	1.245767713	-12.30722904	1.0
8	28.83100128	0	0	-0.1346236765	1.24717617	-12.32136536	1.0
[LeftHandIndex4]
6	23.92700005	0	0	0	0	0	1.0
7	23.92700005	0	0	0	0	0	1.0
8	23.92700005	0	0	0	0	0	1.0
[LeftHandMiddle1]
6	95.33399963	0	0	-2.073040009	3.820069075	-31.92253304	1.0
7	95.33399963	0	0	-2.151235104	4.287822247	-32.7896843	1.0
8	95.33399963	0	0	-2.220598936	4.737658024	-33.55106735	1.0
[LeftHandMiddle2]
6	36.98199844	0	0	-0.3018353581	1.853649974	-18.49518394	1.0
7	36.98199844	0	0	-0.3028240204	1.856613278	-18.52582359	1.0
8	36.98199844	0	0	-0.3035739958	1.85883522	-18.54884911	1.0
[LeftHandMiddle3]
6	29.50900078	0	0	-0.1084203869	1.120522976	-11.05312443	1.0
7	29.50900078	0	0	-0.1090162322	1.12358129	-11.08365726	1.0
8	29.50900078	0	0	-0.1094701439	1.125868082	-11.10652828	1.0
[LeftHandMiddle4]
6	28.3390007	0	0	0	0	0	1.0
7	28.3390007	0	0	0	0	0	1.0
8	28.3390007	0	0	0	0	0	1.0
[LeftHandRing1]
6	91.04499817	-0.4390000105	-18.65100098	-2.217152119	7.424321175	-33.54011154	1.0
7	91.04499817	-0.4390000105	-18.65100098	-2.300349712	7.620782852	-34.45252991	1.0
8	91.04499817	-0.4390000105	-18.65100098	-2.369200945	7.836939812	-35.20170593	1.0
[LeftHandRing2]
6	31.54000092	0	0	-0.4697731137	2.295140266	-23.13216019	1.0
7	31.54000092	0	0	-0.4669515491	2.288541555	-23.06170654	1.0
8	31.54000092	0	0	-0.4649183154	2.28377676	-23.01085281	1.0
[LeftHandRing3]
6	29.37700081	0	0	-0.3377811313	1.957793713	-19.57623863	1.0
7	29.37700081	0	0	-0.3353225589	1.950862169	-19.50406265	1.0
8	29.37700081	0	0	-0.333532989	1.945803285	-19.45141983	1.0
[LeftHandRing4]
6	26.47500038	0	0	0	0	0	1.0
7	26.47500038	0	0	0	0	0	1.0
8	26.47500038	0	0	0	0	0	1.0
[LeftHandPinky1]
6	80.77799988	-4.887000084	-38.06099701	-2.516163588	4.631625652	-36.71240997	1.0
7	80.77799988	-4.887000084	-38.06099701	-2.561653376	4.55533123	-37.19417572	1.0
8	80.77799988	-4.887000084	-38.06099701	-2.60426569	4.573445797	-37.64267731	1.0
[LeftHandPinky2]
6	36	0	0	-0.4959977865	2.355547428	-23.77860641	1.0
7	36	0	0	-0.4899660349	2.341812849	-23.63134575	1.0
8	36	0	0	-0.4860102236	2.332754374	-23.53432083	1.0
[LeftHandPinky3]
6	21.14200211	0	0	-0.2161453515	1.574611783	-15.63125801	1.0
7	21.14200211	0	0	-0.2119632363	1.559566379	-15.47810078	1.0
8	21.14200211	0	0	-0.2092114091	1.549623847	-15.37691402	1.0
[LeftHandPinky4]
6	19.75699997	0	0	0	0	0	1.0
7	19.75699997	0	0	0	0	0	1.0
8	19.75699997	0	0	0	0	0	1.0
[RightShoulder]
6	-45.70000076	109.4620056	-26.28000069	0.0590627864	2.95527482	9.36104393	1.0
7	-45.70000076	109.4620056	-26.28000069	0.05465832353	4.03448391	9.528347969	1.0
8	-45.70000076	109.4620056	-26.28000069	0.02313171141	4.752040386	9.593310356	1.0
[RightArm]
6	-105.9280014	-5.248000145	-22.32099915	16.58156013	12.42006207	63.53521729	1.0
7	-105.9280014	-5.248000145	-22.32099915	15.63381767	13.34374905	63.15296555	1.0
8	-105.9280014	-5.248000145	-22.32099915	14.90442657	14.24330807	63.72693634	1.0
[RightForeArm]
6	-278.414978	0	0	-5.628423878e-06	22.73368645	1.859872214e-06	1.0
7	-278.414978	0	0	-1.017582508e-05	24.52331734	4.355790679e-06	1.0
8	-278.414978	0	0	-7.03933074e-06	26.14692497	1.055306825e-06	1.0
[RightHand]
6	-283.2879944	0	0.0009999999311	7.749461651	8.992992401	4.222676754	1.0
7	-283.2879944	0	0.0009999999311	7.20646143	9.52809906	3.448561907	1.0
8	-283.2879944	0	0.0009999999311	6.978426933	10.30628395	2.380498409	1.0
[RightHandPinky1]
6	-80.76699829	-4.885000229	-38.06000137	-1.784515977	-0.04541451856	30.76899719	1.0
7	-80.76699829	-4.885000229	-38.06000137	-1.776745677	-0.1660577059	30.65994263	1.0
8	-80.76699829	-4.885000229	-38.06000137	-1.763092518	-0.6471868157	30.45828629	1.0
[RightHandPinky2]
6	-36	0	0.0009999999311	-0.3905086517	-1.862919092	23.69647408	1.0
7	-36	0	0.0009999999311	-0.3966313601	-1.876794577	23.88399315	1.0
8	-36	0	0.0009999999311	-0.3937951922	-1.870355964	23.79711723	1.0
[RightHandPinky3]
6	-21.14200211	0	0	-0.4460346103	-1.984620214	25.33039093	1.0
7	-21.14200211	0	0	-0.4504535794	-1.993932724	25.45784569	1.0
8	-21.14200211	0	0	-0.4489920139	-1.990870953	25.41578102	1.0
[RightHandPinky4]
6	-19.75699997	0	0	0	0	0	1.0
7	-19.75699997	0	0	0	0	0	1.0
8	-19.75699997	0	0	0	0	0	1.0
[RightHandRing1]
6	-91.03599548	-0.4390000105	-18.65100098	-2.202934027	-1.631335735	36.2571907	1.0
7	-91.03599548	-0.4390000105	-18.65100098	-2.213261127	-1.51686728	36.38942337	1.0
8	-91.03599548	-0.4390000105	-18.65100098	-2.154447079	-1.678743362	35.64990234	1.0
[RightHandRing2]
6	-31.54000092	0	0	-0.6906722188	-2.434862375	31.66830254	1.0
7	-31.54000092	0	0	-0.6856213212	-2.42665863	31.54931831	1.0
8	-31.54000092	0	0	-0.6840782166	-2.424161434	31.51302719	1.0
[RightHandRing3]
6	-29.37700081	0	0	-0.7678906918	-2.55572319	33.44207001	1.0
7	-29.37700081	0	0	-0.76250422	-2.547564507	33.32104111	1.0
8	-29.37700081	0	0	-0.7608882189	-2.545098066	33.28474426	1.0
[RightHandRing4]
6	-26.47500038	0	0	0	0	0	1.0
7	-26.47500038	0	0	0	0	0	1.0
8	-26.47500038	0	0	0	0	0	1.0
[RightHandMiddle1]
6	-95.32500458	0	0	-2.436158419	-1.398418546	39.13046646	1.0
7	-95.32500458	0	0	-2.425499201	-1.469553113	38.99917984	1.0
8	-95.32500458	0	0	-2.372845411	-1.416179299	38.35874939	1.0
[RightHandMiddle2]
6	-36.98199844	0	0	-0.4475222826	-1.987806678	25.37371826	1.0
7	-36.98199844	0	0	-0.4476698935	-1.988114119	25.37778091	1.0
8	-36.98199844	0	0	-0.4455566108	-1.983631968	25.31653404	1.0
[RightHandMiddle3]
6	-29.50900078	0	0	-0.3132485151	-1.677786112	21.17463875	1.0
7	-29.50900078	0	0	-0.3133707345	-1.678097486	21.1788044	1.0
8	-29.50900078	0	0	-0.3115651309	-1.673431158	21.11687851	1.0
[RightHandMiddle4]
6	-28.3390007	0	0.0009999999311	0	0	0	1.0
7	-28.3390007	0	0.0009999999311	0	0	0	1.0
8	-28.3390007	0	0.0009999999311	0	0	0	1.0
[RightHandIndex1]
6	-91.08300018	-5.167999744	22.60099792	-1.633657575	6.335089207	29.882658	1.0
7	-91.08300018	-5.167999744	22.60099792	-1.667336106	6.251225471	30.30776787	1.0
8	-91.08300018	-5.167999744	22.60099792	-1.574002147	6.31870079	29.04117012	1.0
[RightHandIndex2]
6	-36.76399994	0	0	-0.5679710507	-2.223895311	28.65041733	1.0
7	-36.76399994	0	0	-0.5670126081	-2.222146273	28.62568855	1.0
8	-36.76399994	0	0	-0.5682048202	-2.22432065	28.65635109	1.0
[RightHandIndex3]
6	-28.83100128	0	0	-0.2331535369	-1.452262521	18.24092293	1.0
7	-28.83100128	0	0	-0.2325217724	-1.450346708	18.21594429	1.0
8	-28.83100128	0	0	-0.2333104759	-1.452737927	18.24690628	1.0
[RightHandIndex4]
6	-23.92700005	0	0	0	0	0	1.0
7	-23.92700005	0	0	0	0	0	1.0
8	-23.92700005	0	0	0	0	0	1.0
[RightHandThumb1]
6	-24.64799881	-15.72700024	26.82600021	30.15343666	21.14214134	-10.25145817	1.0
7	-24.64799881	-15.72700024	26.82600021	30.15343666	21.14214134	-10.25145817	1.0
8	-24.64799881	-15.72700024	26.82600021	30.15343666	21.14214134	-10.25145817	1.0
[RightHandThumb2]
6	-32.29800034	-18.64699936	18.64699936	14.22145176	-21.10426331	2.480570793	1.0
7	-32.29800034	-18.64699936	18.64699936	14.35681534	-20.32551193	2.639938831	1.0
8	-32.29800034	-18.64699936	18.64699936	13.80049992	-19.00609016	2.395937204	1.0
[RightHandThumb3]
6	-26.52600098	-15.31399918	15.31399918	-12.01137352	-13.28443241	-10.43671799	1.0
7	-26.52600098	-15.31399918	15.31399918	-12.02792645	-13.24260139	-10.44874954	1.0
8	-26.52600098	-15.31399918	15.31399918	-12.01039982	-13.28778362	-10.43614864	1.0
[RightHandThumb4]
6	-19.54599953	-11.28499985	11.28499985	0	0	0	1.0
7	-19.54599953	-11.28499985	11.28499985	0	0	0	1.0
8	-19.54599953	-11.28499985	11.28499985	0	0	0	1.0
[LeftUpLeg]
6	82.07800293	-67.51699829	-15.99599934	-39.3247261	14.21877575	12.45436192	1.0
7	82.07800293	-67.51699829	-15.99599934	-41.15820313	15.88998985	13.47344685	1.0
8	82.07800293	-67.51699829	-15.99599934	-41.62617111	15.79552937	11.63473701	1.0
[LeftLeg]
6	0	-443.7049866	2.845999956	7.795209885	1.091991425	0.2007471174	1.0
7	0	-443.7049866	2.845999956	7.922255516	3.295213699	0.3441498876	1.0
8	0	-443.7049866	2.845999956	10.81513119	3.898584604	0.6657125354	1.0
[LeftFoot]
6	0	-444.2789917	-29.8219986	-9.6323452	-0.7676536441	-7.09060955	1.0
7	0	-444.2789917	-29.8219986	-12.49414635	-1.150814056	-9.00883007	1.0
8	0	-444.2789917	-29.8219986	-10.96451855	-0.7803726792	-9.562888145	1.0
[LeftToeBase]
6	0	-87.28699493	107.1060028	-7.115300655	2.558212145e-05	5.969896392e-06	1.0
7	0	-87.28699493	107.1060028	-7.117862701	3.984441719e-05	2.735571979e-05	1.0
8	0	-87.28699493	107.1060028	-7.942436218	1.65426045e-05	1.137230265e-05	1.0
[RightUpLeg]
6	-82.07800293	-67.51699829	-15.99599934	-7.201710224	-2.39748764	-2.94683075	1.0
7	-82.07800293	-67.51699829	-15.99599934	-3.316567421	-2.193146229	-4.430070877	1.0
8	-82.07800293	-67.51699829	-15.99599934	1.718855858	-0.7600813508	-7.196674347	1.0
[RightLeg]
6	0	-443.7049866	2.861999989	21.37327766	9.301254272	3.722764492	1.0
7	0	-443.7049866	2.861999989	20.49573708	9.483486176	3.627454281	1.0
8	0	-443.7049866	2.861999989	17.56245613	9.620872498	3.066167593	1.0
[RightFoot]
6	0	-444.2770081	-29.83799934	-22.51393318	3.91480422	2.917749166	1.0
7	0	-444.2770081	-29.83799934	-25.46952438	5.479043484	3.867563963	1.0
8	0	-444.2770081	-29.83799934	-29.07784843	5.450243473	5.516138554	1.0
[RightToeBase]
6	0	-87.28699493	107.1060028	-6.010786533	1.990049714e-05	1.661717533e-06	1.0
7	0	-87.28699493	107.1060028	-6.010782242	-1.359138696e-05	-2.248239525e-06	1.0
8	0	-87.28699493	107.1060028	-5.114968777	-0.01051819697	-0.03197223321	1.0
[EndOfFile]
